<svg xmlns="http://www.w3.org/2000/svg" viewBox="0 0 1000 700" role="img" aria-label="Ukraine outline map">
  <g fill="none" stroke="#8df4ff" stroke-linecap="round" stroke-linejoin="round">
    <path
      d="M71 309 L106 286 L145 291 L180 267 L219 274 L246 248 L292 260 L326 238 L370 249 L404 222 L448 236 L487 207 L527 224 L574 204 L612 229 L657 220 L699 250 L748 251 L783 281 L836 283 L862 321 L919 336 L943 382 L916 423 L873 426 L849 462 L799 461 L769 497 L721 485 L678 516 L628 496 L579 520 L541 488 L493 503 L453 471 L409 482 L368 455 L318 466 L288 431 L243 434 L214 398 L169 405 L139 368 L96 361 Z"
      stroke-width="12"
    />
    <path
      d="M569 524 C604 548 649 553 692 543 C728 535 759 552 789 584 C746 592 709 587 681 570 C649 589 604 586 574 562 C548 541 542 525 569 524 Z"
      stroke-width="10"
    />
    <path
      d="M483 243 C491 292 506 337 532 378 C552 410 552 447 535 490"
      stroke-width="5"
      opacity=".44"
    />
  </g>
</svg>
