<svg xmlns="http://www.w3.org/2000/svg" viewBox="0 0 1000 720" role="img" aria-label="Ukraine outline map including Crimea">
  <metadata>
    Source: GADM 4.1 UKR ADM0 boundary.
    URL: https://geodata.ucdavis.edu/gadm/gadm4.1/json/gadm41_UKR_0.json
    Projection: Web Mercator, generated for dashboard tenant map marker alignment.
    Bounds: minLon=22.1404, maxLon=40.2181, minLat=44.386, maxLat=52.375
  </metadata>
  <g fill="none" stroke-linecap="round" stroke-linejoin="round">
    <path
      d="M635.3 671.9 L627.9 669.4 L625.1 664.3 L619.5 664.2 L613.9 658.1 L615.1 657.4 L615.6 659.4 L617.7 656.1 L624.9 655.8 L620.7 654.9 L622.5 651.8 L622.7 639.7 L625.7 637 L625.6 628.1 L623.3 621.3 L617.2 614.4 L614.1 613.1 L607.6 616.7 L593.6 603.7 L595.8 605.4 L597.6 600.2 L599.5 600.4 L604.8 594.9 L593.7 602.1 L590.4 601.2 L593.4 603.6 L589.6 601.1 L582.9 600.6 L576.3 604.4 L568.1 602.2 L569.2 600.3 L567.3 598.6 L572.8 592.2 L583.3 586.2 L582.1 588.7 L584.8 587.9 L585.2 584.1 L588.8 581.1 L601.7 574.4 L602.9 569.5 L608 571.9 L619.2 564.6 L622.4 566 L626.1 561.9 L629.6 565.3 L629.3 560.9 L633.3 557.6 L626.3 557.7 L627.5 547.6 L624.7 541.8 L620.7 544.6 L623.6 548.1 L620 548.1 L620.9 551.5 L618.3 549.9 L616.1 551.4 L611.4 545.1 L609.1 548 L610.5 545.5 L609 543.7 L605.7 543.8 L604.7 545.6 L605.9 537.6 L601.3 544.4 L595.9 542.1 L595.7 545.4 L582.3 544.6 L573.4 546.5 L570.6 548.8 L545.1 541 L554.2 543.8 L555.3 541.2 L548.3 538 L546.4 535.1 L541 534.5 L537.2 530.1 L536 533.9 L531.1 533.9 L529.9 531.6 L531.3 529.6 L540.4 528.1 L545.3 525.1 L543.9 520.6 L529.4 517.1 L526.9 518.7 L527.2 521.3 L517.2 510.4 L520.7 513.5 L529.8 512.7 L543.7 517.3 L550.6 516.8 L550.3 515.5 L552.7 517.8 L561 519.1 L564.6 517 L558.7 518.6 L557.3 517.1 L558.9 516 L557 516 L558.8 515.9 L557.3 515.6 L558.7 515.3 L557.5 510.4 L555 509.4 L549.7 512 L548.1 508 L541.5 504.4 L538.5 494.5 L543.1 488 L543 482.5 L541.5 483 L541.5 487.5 L536 494.2 L538.6 498.9 L536.2 506.2 L531.9 508 L523.7 505 L519.2 508.7 L512.5 506.4 L508.8 508.8 L499.6 506.6 L491.7 508.8 L490.8 504.3 L491 509.3 L477.8 512.9 L477.9 525.7 L474 529.7 L472 525 L471.6 528.6 L474.1 530.3 L463.3 548.3 L446.9 566.6 L445.3 560.1 L442.2 568.7 L438 560.8 L436.7 570.8 L435.1 565.7 L435.6 573.2 L432.7 569.2 L432.8 572.1 L428 573.5 L429.8 577.3 L432.9 577.8 L445.9 567.1 L430.5 580.1 L426.9 582.7 L430.3 580.1 L425.3 581.8 L426.5 582.9 L418.5 591.9 L420.8 594.4 L421.3 592.5 L422.4 594.2 L424.6 592.9 L422.3 595.7 L427.8 593.9 L426.3 594.9 L426.7 602.6 L425.2 602.6 L426.8 603.9 L425.1 609.8 L426.3 611.3 L423.1 609.1 L424.7 612.2 L421.1 612.1 L422.6 612.5 L421 602.6 L416.5 598 L409.5 595 L399.8 595.6 L385.4 603.2 L384.3 607 L376.6 603 L377 605.5 L374.4 606.7 L376.5 609.7 L372.7 611.1 L353.3 603.8 L349.9 594.9 L346.5 593.2 L347.2 591.3 L351.5 587.4 L357.9 591.7 L361.7 590.8 L361.3 585.8 L363.8 584.6 L361.1 577.8 L362.8 574.3 L376.2 565.4 L375 557.4 L376.5 555.4 L386.6 551.9 L385.3 544.3 L390.1 538.7 L384.4 532.7 L386.6 529.3 L383.8 519.2 L387 518.6 L386.4 516.4 L399.7 511.5 L400.8 516.9 L398.4 524 L400.2 525 L401.4 522.5 L403.9 522.4 L403.4 518.4 L405.3 515.8 L408.3 521.3 L410.4 516.6 L412.4 517.7 L418.6 526.6 L423.5 526 L422.1 520.5 L425.3 521.2 L426.2 518.1 L428.4 519.6 L429.7 524.8 L433 526.4 L436.2 523.6 L444.2 524.7 L447.4 521.7 L442.2 521.3 L439 518.9 L440.4 518.4 L438.6 515.9 L436.8 516.7 L437.3 515.2 L435.7 516 L433.4 513 L437.2 509.2 L436.2 504.8 L438.1 496.1 L435.8 492.9 L437.5 491.5 L434 491.5 L432.9 487.3 L426.6 489 L424.9 484.3 L417 482 L420.3 474.4 L419.4 471 L415.8 472.4 L413.5 468.9 L417.8 467.7 L416.2 459.9 L418.7 457.8 L417.5 450.1 L413.5 450.4 L412.6 454.4 L409.7 455.6 L407.5 454.2 L408.2 449.6 L405.1 449.8 L403.9 444.5 L400.5 446.2 L400 443.2 L397.5 444.9 L395.9 442.8 L396.9 439.1 L394 436.1 L399 432.4 L398.7 423.1 L402.2 417.2 L398.4 415.8 L401.4 409.8 L398 410.5 L396.7 402.1 L392.5 403.2 L391.1 406.3 L386.3 403.4 L383.6 405 L379.7 399.3 L378.7 391.9 L364.4 388.6 L360.4 396.6 L357.5 388.2 L351.6 391 L354.5 386 L353.7 382.6 L346.7 385.7 L344.7 381.8 L340.4 383.6 L339.4 377 L331.6 376.3 L328.2 373.3 L328.8 370 L323.1 366.2 L316.9 367 L314.8 363.7 L308 366.9 L307.2 369.3 L303.4 369.9 L300.9 367 L296.2 372.9 L293.8 371.1 L290.6 372 L287.3 367.7 L285.6 368.7 L286.3 371.3 L281.5 373.5 L277 368.8 L268.9 370.2 L274.7 375.4 L274.3 379.1 L272.2 380.6 L267.8 374.4 L264 383.3 L249.1 387.4 L241.7 402.2 L224.2 404.2 L220.3 406.5 L212.5 405.8 L196.2 408.4 L192.1 410.1 L186.1 420.7 L182.2 423 L174.1 423.1 L171.2 415.7 L164.9 414.2 L160.9 405.8 L158.2 404.3 L154.9 405.5 L150.9 404.1 L148.1 407.5 L140.2 409.8 L134.1 408.4 L128.8 404.3 L121.3 407.1 L116.6 402.2 L111 403.1 L104 400.3 L102.1 404.3 L93.8 400.2 L90.5 394.1 L86.4 394.2 L85.2 392.5 L82.5 395.1 L81.3 401.4 L77.3 402.6 L72.8 400.3 L73.9 404.3 L71.6 405.2 L68.5 402.7 L70.4 397.7 L67.5 392.6 L63.3 392.3 L59.5 394.5 L55.3 393.4 L54.5 386.4 L50.6 382.2 L44.1 383.3 L41.2 373.6 L37.4 371.7 L38.5 369.4 L32.1 370.5 L34.7 354.9 L43.1 347.5 L43.8 344.3 L42.3 342.8 L44.7 333.6 L49.1 324.3 L52.8 323.3 L53.8 316.9 L56.6 316.6 L59.7 320.2 L65.3 319.4 L68.6 323.5 L71 322.3 L69.5 318.4 L71 316.2 L65.6 311.2 L63 311.2 L63.9 309.2 L61.4 309.9 L63.4 306.7 L61.7 305.8 L63.4 295.2 L60.8 284.5 L57.9 281.6 L91 235.9 L112 217.2 L116.2 210.5 L128.2 210.6 L131.9 203.2 L133.4 195.4 L132.2 186 L129.1 185.3 L129.5 181.7 L126.1 179.4 L128.2 175.5 L133.8 175.8 L135.8 173.3 L131 171.5 L126.8 166.6 L123.9 162 L123.7 156.4 L120.9 154.3 L121.5 150.2 L114.8 145.1 L113.2 139.7 L110.1 138.8 L109.4 135.4 L112.9 129.2 L112 125.8 L110.1 125.7 L111.2 122.6 L108.4 120.9 L112.2 119.8 L110.8 109.7 L119.9 108 L120.9 110.2 L126.9 110.6 L125.4 113.8 L131.9 113.4 L136.5 107 L145.9 99.5 L145.7 93.2 L149.3 86.4 L161 85.2 L168.9 88 L172.8 84.9 L174.3 86.7 L179.8 86.7 L184.6 82.6 L195.7 80.7 L199.2 83.7 L205.2 85.1 L209.5 83.4 L221.8 85 L221.3 82.7 L222.8 82.6 L229.3 85.5 L237.9 85.4 L243.3 89.8 L253.6 88.3 L253.8 92.4 L258.8 95.8 L264.3 93.1 L272.1 94 L274.1 98.6 L293.6 97.2 L293.9 105.9 L297.2 107.2 L295.5 112.7 L306.7 110.2 L310.4 112.4 L309.7 109 L320.3 110.8 L321.1 114.2 L318.3 118.7 L322.5 121.8 L324.3 117.9 L327.2 116.9 L326.8 109.5 L330.3 109.8 L331.5 114 L334.4 113.1 L332.7 115.9 L339.6 115.4 L345.2 107.5 L349.6 104.7 L348.8 110.3 L350.8 110.1 L354 117.1 L360.7 113 L370.6 116 L371.3 124.4 L374.7 125 L375.5 127.5 L378.1 117.6 L382.2 115 L387.8 115.6 L393.5 108.3 L395.5 108.6 L400.9 117 L399.7 121.4 L403.6 125.4 L404.5 129.8 L408.5 127 L413.5 128.5 L414.7 121.3 L417.9 123.3 L424.5 118.8 L428.3 125.8 L428.3 124.4 L432.6 125.4 L433.2 122.5 L438.6 122.6 L439.9 119.8 L445 121.1 L448.3 119.2 L457 126.8 L456.9 133.4 L460.7 136.8 L462.6 135.8 L463 139.3 L467.1 140.3 L473 133.7 L468.5 127 L470.9 122.6 L466.8 116.8 L466.3 113.2 L468.2 111.7 L465.9 107.2 L471.2 102.6 L472.7 98.5 L471.3 98 L473.7 96.5 L475.8 89 L480.6 86.9 L483.6 78.9 L487.6 80 L488.2 72.8 L496.5 71.4 L503.4 75.3 L510.5 68 L513.7 67.8 L515.6 69.3 L535.2 70.3 L539.9 72.3 L539.1 76.9 L543.6 75.9 L546.2 77.5 L550.8 73.5 L553.4 74.6 L558 71.6 L561.2 67.2 L559.5 59.5 L563 58.1 L561.1 52.5 L562.5 50.2 L571.6 51.8 L578.1 58 L588.1 56.3 L589.6 58.8 L597 52.6 L598.7 52.2 L598.5 53.7 L603.5 50.8 L604.4 47.7 L612.1 50.8 L615.4 49 L618.1 51.7 L617.7 49.6 L621.7 49.9 L620.7 54.7 L623.7 54.8 L623.4 52.8 L624.7 53.8 L631.9 49.4 L637.3 49.2 L638 53.8 L642.1 53.9 L643.1 58.5 L647 63 L649.4 63.1 L652 68.1 L649.7 72.6 L650.2 79.6 L653.3 80.5 L657.7 87.3 L659.8 87.1 L659.1 91.2 L662.1 88.8 L667.7 93.4 L666.5 97.6 L667.9 102.3 L650.8 107.1 L662.5 118.8 L657.6 129 L663.8 132.5 L660.1 141.1 L663.6 143.4 L667.5 140.5 L680 142.1 L681.7 147 L688 148 L696.6 143 L703.6 144.1 L708.4 158.2 L714 155.4 L719.8 158.1 L719.2 160.6 L715.8 161.2 L715.6 166.8 L718.8 168.1 L718.3 172.5 L723.3 181.3 L722.5 187.1 L723.9 189.1 L719.5 190.7 L719.2 196.2 L724.3 204.9 L728 206.2 L730.5 214.8 L736.1 214.9 L741 207.5 L753.4 206.4 L757.6 207.6 L764.1 214.9 L765.9 220.2 L769.5 220 L773.4 216.9 L778.5 220.8 L780.4 219.6 L779.2 223.2 L783.8 225.5 L786.4 221.6 L794.1 216.9 L810 215.7 L818.8 209.9 L822.6 210.7 L826.5 208.6 L826.3 215.3 L831.5 219.8 L834.9 219.3 L833.8 226.1 L835.2 229.7 L840.7 236.2 L848.9 239.1 L855.6 247.5 L854.9 250.2 L864.9 246 L863 243.7 L863.5 237.8 L870.7 237 L874.1 245 L877.9 244 L879.2 246.6 L884.8 245.8 L887.6 247.3 L888.8 244.1 L891.9 251.3 L901.3 254.8 L900.9 257.6 L903 259.8 L906.6 257.6 L908.8 258.4 L914.6 253.7 L920.4 263.6 L924.5 264.9 L929.8 262.9 L936.6 264.7 L935.5 266 L938.5 273.4 L946.1 278.5 L952.2 279.2 L955.5 275.8 L965.8 274.9 L964.5 274.9 L968 282.8 L965 289.1 L967 304.5 L957.9 309.9 L953.4 318.7 L939.6 319.9 L939.4 323.5 L943.7 324.3 L947.9 332.5 L948.5 330.7 L952.4 330.6 L956.6 333.4 L959.8 330.5 L961.7 332.9 L956.2 339.3 L946.2 335.5 L944.8 341.3 L942.8 341.5 L941.6 344.5 L941.6 350.4 L939 353.2 L940.6 355.8 L948.9 357.4 L949 365.1 L953.9 373.1 L949 376.8 L952.9 378.7 L956 377.3 L957.6 382.4 L956.5 384.5 L954 384.2 L948.7 396.8 L950.9 398.3 L946.2 399 L948.8 402.4 L944.4 415.4 L932.4 415 L928.9 412.5 L926.5 413.9 L924.1 411.3 L911.1 414.3 L906.9 412.3 L896.4 412.5 L892.8 426.2 L887.7 425.3 L885 429.7 L876.8 429.8 L877.3 431.9 L872.4 431.8 L869.2 435.6 L868.8 449.3 L866.2 450.4 L864.8 454.6 L870 455.6 L870.5 459.2 L865.9 461.1 L865.3 469.4 L858.2 476.3 L860 472.9 L856.5 469.9 L852.3 471.8 L848 470 L837.9 472.4 L831.7 472.5 L831.1 471 L817.5 488.2 L816.2 488.5 L818.3 487.1 L817.9 485.1 L813.5 482.2 L799.5 489.7 L796 493 L789.3 506.3 L792.5 501.2 L791.8 499 L786.9 495.2 L781.3 495.3 L768.7 500.8 L758.6 516.1 L755.2 517 L757.5 513.1 L758.5 514.5 L761.1 512.6 L764.9 505.8 L763.3 505.9 L763 509 L762.4 505.7 L759.3 503.3 L745.5 504.2 L734.6 509 L729.2 516.7 L721.1 520.8 L704.8 544.7 L697 547.8 L699.4 543.4 L708.9 539.6 L716.3 526.5 L714.2 528.9 L711.2 525.6 L708.2 525.2 L700.9 533.6 L689.9 537.7 L687.9 542.7 L696.2 570.7 L703.6 583.9 L721.3 605 L725.2 606.8 L735.1 603 L741.8 592.7 L743.2 597.2 L748.2 600.3 L752.6 598.8 L753.4 595.1 L755.9 593.7 L767.4 592 L771 594.8 L780.5 595.4 L783.1 599.5 L780.5 602.2 L775.5 600.8 L773.5 602.6 L775.2 604.3 L771.2 606.8 L770.4 611.9 L773.1 620.6 L769 623.2 L761.3 625.5 L751.4 623.9 L741.3 627.7 L734.4 620.1 L724.7 618.6 L718 623.6 L719.9 626.6 L716.3 628.5 L717.8 631.5 L711.1 630.3 L702.1 642.8 L696.2 639.2 L693.2 641.1 L683.5 641.5 L669.9 648.6 L664 660.5 L654.8 664.4 L652.6 669.2 L644.5 671.9 L635.6 671.8 L635.3 671.9 Z
      M777.1 606.6 L780 609.5 L776.9 606.5 L777.1 606.6 Z
      M571 548.7 L583 551.5 L587.3 549.2 L587.7 550.9 L591.3 550.2 L598.5 552.7 L587.9 552.5 L570.8 548.5 L571 548.7 Z
      M518.4 526.6 L518.7 531.7 L521.7 535 L544.1 540.6 L522.1 535.5 L517.8 531.2 L518.4 526.1 L518.4 526.6 Z
      M604.3 547.2 L605.2 548.2 L604.2 547.2 L604.3 547.2 Z
      M426.1 591.7 L425.7 593.4 L427.8 593.4 L424.6 594.6 L426.2 591.6 L426.1 591.7 Z
      M424.5 592.9 L425.8 591.5 L424.8 592.8 L424.5 592.9 Z
      M528.7 522.1 L530.9 525.8 L528.5 522 L528.7 522.1 Z
      M548.7 515.2 L546.7 516.1 L548.7 515 L548.7 515.2 Z
      M127.8 210.1 L126.4 210.1 L128 210.1 L127.8 210.1 Z"
      stroke="#8df4ff"
      stroke-width="8"
      vector-effect="non-scaling-stroke"
    />
    <path
      d="M529 91 C528 166 548 236 584 302 C616 360 617 431 588 519"
      stroke="#8df4ff"
      stroke-width="3"
      opacity=".28"
      vector-effect="non-scaling-stroke"
    />
  </g>
</svg>
